<?xml version='1.0' encoding='utf-8'?>
<svg xmlns="http://www.w3.org/2000/svg" width="1200" height="630" viewBox="0 0 680 400">
<title>PICSELL Blog — Offline-First в Україні</title>
<defs>
  <linearGradient id="bg4" x1="0%" y1="0%" x2="100%" y2="100%"><stop offset="0%" stop-color="#060608"/><stop offset="100%" stop-color="#0A0C10"/></linearGradient>
  <linearGradient id="orangeGlow" x1="0%" y1="0%" x2="100%" y2="100%"><stop offset="0%" stop-color="#FF5C00" stop-opacity="0.12"/><stop offset="100%" stop-color="#FF5C00" stop-opacity="0"/></linearGradient>
  <clipPath id="rc4"><rect width="680" height="400" rx="12"/></clipPath>
</defs>
<g clip-path="url(#rc4)">
  <rect width="680" height="400" fill="url(#bg4)"/>
  <pattern id="d4" x="0" y="0" width="30" height="30" patternUnits="userSpaceOnUse"><circle cx="1" cy="1" r="1" fill="#FFFFFF" opacity="0.04"/></pattern>
  <rect width="680" height="400" fill="url(#d4)"/>
  <ellipse cx="560" cy="130" rx="200" ry="150" fill="url(#orangeGlow)"/>
  <g transform="translate(360, 50)">
    <rect x="0" y="0" width="128" height="200" rx="12" fill="#0D0D0F" stroke="#1E1E24" stroke-width="0.8"/>
    <rect x="0" y="0" width="128" height="32" rx="12" fill="#111114"/>
    <rect x="0" y="20" width="128" height="12" fill="#111114"/>
    <rect x="10" y="8" width="50" height="5" rx="2" fill="#2A2A32"/>
    <rect x="80" y="9" width="40" height="14" rx="7" fill="#FF003D12" stroke="#FF003D30" stroke-width="0.5"/>
    <rect x="87" y="13" width="6" height="6" rx="3" fill="#FF003D"/>
    <rect x="10" y="44" width="108" height="6" rx="3" fill="#0057FF" opacity="0.8"/>
    <rect x="10" y="56" width="80" height="4" rx="2" fill="#1A1A1E"/>
    <rect x="10" y="68" width="108" height="6" rx="3" fill="#0057FF" opacity="0.6"/>
    <rect x="10" y="80" width="90" height="4" rx="2" fill="#1A1A1E"/>
    <rect x="10" y="92" width="108" height="6" rx="3" fill="#0057FF" opacity="0.4"/>
    <rect x="10" y="120" width="108" height="28" rx="6" fill="#111114" stroke="#1E1E24" stroke-width="0.5"/>
    <text x="16" y="139" fill="#FF5C00" font-family="monospace" font-size="9">3 в черзі ⋯</text>
    <rect x="10" y="154" width="108" height="28" rx="6" fill="#111114" stroke="#1E1E24" stroke-width="0.5"/>
    <rect x="16" y="162" width="50" height="4" rx="2" fill="#2A2A32"/>
    <text x="64" y="216" fill="#C8FF00" font-family="monospace" font-size="11" text-anchor="middle" font-weight="700">Працює офлайн</text>
    <path d="M134 100 L152 100" stroke="#C8FF00" stroke-width="1.5" fill="none" marker-end="url(#arrowG)"/>
    <rect x="158" y="0" width="128" height="200" rx="12" fill="#0D0D0F" stroke="#C8FF0030" stroke-width="0.8"/>
    <rect x="158" y="0" width="128" height="32" rx="12" fill="#0D1208"/>
    <rect x="158" y="20" width="128" height="12" fill="#0D1208"/>
    <rect x="168" y="8" width="50" height="5" rx="2" fill="#2A2A32"/>
    <rect x="240" y="9" width="38" height="14" rx="7" fill="#C8FF0015" stroke="#C8FF0035" stroke-width="0.5"/>
    <circle cx="248" cy="16" r="3" fill="#C8FF00"/>
    <rect x="168" y="44" width="108" height="20" rx="5" fill="#C8FF0008" stroke="#C8FF0020" stroke-width="0.5"/>
    <circle cx="177" cy="54" r="4" fill="#C8FF00" opacity="0.8"/>
    <rect x="185" y="49" width="60" height="4" rx="2" fill="#2A2A32"/>
    <rect x="168" y="72" width="108" height="20" rx="5" fill="#C8FF0008" stroke="#C8FF0020" stroke-width="0.5"/>
    <circle cx="177" cy="82" r="4" fill="#C8FF00" opacity="0.8"/>
    <rect x="185" y="77" width="70" height="4" rx="2" fill="#2A2A32"/>
    <rect x="168" y="100" width="108" height="20" rx="5" fill="#C8FF0008" stroke="#C8FF0020" stroke-width="0.5"/>
    <circle cx="177" cy="110" r="4" fill="#C8FF00" opacity="0.8"/>
    <rect x="168" y="132" width="108" height="8" rx="4" fill="#1A1A1E"/>
    <rect x="168" y="132" width="108" height="8" rx="4" fill="#C8FF00" opacity="0.7"/>
    <text x="222" y="156" fill="#C8FF00" font-family="monospace" font-size="9" text-anchor="middle">100% синхронізовано</text>
    <rect x="168" y="160" width="108" height="24" rx="6" fill="#C8FF0010" stroke="#C8FF0030" stroke-width="0.5"/>
    <text x="222" y="176" fill="#C8FF00" font-family="monospace" font-size="10" text-anchor="middle" font-weight="700">ERP оновлено</text>
    <text x="222" y="216" fill="#C8FF00" font-family="monospace" font-size="11" text-anchor="middle" font-weight="700">Автоматично</text>
    <rect x="0" y="230" width="286" height="50" rx="10" fill="#111114" stroke="#1E1E24" stroke-width="0.5"/>
    <rect x="4" y="240" width="3" height="28" rx="1" fill="#0057FF"/>
    <rect x="4" y="240" width="3" height="14" rx="1" fill="#FFD700"/>
    <rect x="14" y="245" width="260" height="5" rx="2" fill="#1A1A1E"/>
    <rect x="14" y="256" width="180" height="4" rx="2" fill="#161618"/>
    <rect x="14" y="266" width="220" height="4" rx="2" fill="#161618"/>
  </g>
  <rect x="40" y="48" width="120" height="22" rx="11" fill="#FF5C0010" stroke="#FF5C0030" stroke-width="0.5"/>
  <circle cx="54" cy="59" r="3" fill="#FF5C00"/>
  <text x="40" y="128" fill="#FFFFFF" font-family="Georgia, serif" font-size="36" font-weight="700" letter-spacing="-0.5">Offline-First:</text>
  <text x="40" y="168" fill="#FF5C00" font-family="Georgia, serif" font-size="30" font-weight="700" letter-spacing="-0.5">чому це</text>
  <text x="40" y="204" fill="#FFFFFF" font-family="Georgia, serif" font-size="30" font-weight="700" letter-spacing="-0.5">критично для</text>
  <text x="40" y="240" fill="#FFFFFF" font-family="Georgia, serif" font-size="30" font-weight="700" letter-spacing="-0.5">FMCG в</text>
  <text x="40" y="276" fill="#C8FF00" font-family="Georgia, serif" font-size="36" font-weight="700" letter-spacing="-0.5">Україні</text>
  <text x="40" y="308" fill="#A0A0B0" font-family="Arial, sans-serif" font-size="13">Технічний огляд і чеклист для</text>
  <text x="40" y="324" fill="#A0A0B0" font-family="Arial, sans-serif" font-size="13">перевірки вашого SFA-рішення</text>
  <rect x="40" y="342" width="3" height="18" rx="1.5" fill="#FF5C00"/>
  <text x="50" y="356" fill="#666670" font-family="Arial, sans-serif" font-size="12">Технологія · SFA · 4 хв читання</text>
  <text x="638" y="376" fill="#333338" font-family="Georgia, serif" font-size="14" font-weight="700" text-anchor="end">PICSELL+</text>
  <rect x="40" y="36" width="40" height="3" rx="1.5" fill="#FF5C00" opacity="0.9"/>
</g>
</svg>