<svg width="1200" height="630" viewBox="0 0 680 400" role="img" xmlns="http://www.w3.org/2000/svg">
<title>PICSELL Blog — How Vision AI Transforms</title>
<defs>
  <linearGradient id="bg" x1="0%" y1="0%" x2="100%" y2="100%"><stop offset="0%" stop-color="#060608"/><stop offset="100%" stop-color="#080C12"/></linearGradient>
  <linearGradient id="gl" x1="0%" y1="0%" x2="100%" y2="100%"><stop offset="0%" stop-color="#0057FF" stop-opacity="0.15"/><stop offset="100%" stop-color="#0057FF" stop-opacity="0"/></linearGradient>
  <clipPath id="cr"><rect width="680" height="400" rx="12"/></clipPath>
</defs>
<g clip-path="url(#cr)">
  <rect width="680" height="400" fill="url(#bg)"/>
  <pattern id="dt" x="0" y="0" width="30" height="30" patternUnits="userSpaceOnUse"><circle cx="1" cy="1" r="1" fill="#FFFFFF" opacity="0.042"/></pattern>
  <rect width="680" height="400" fill="url(#dt)"/>
  
  <ellipse cx="560" cy="200" rx="230" ry="190" fill="url(#gl)"/>
  <g transform="translate(358,42)">
    <rect x="0" y="0" width="297" height="318" rx="14" fill="#0D0D0F" stroke="#1E1E24" stroke-width="0.8"/>
    <rect x="0" y="0" width="297" height="44" rx="14" fill="#111114"/>
    <rect x="0" y="30" width="297" height="14" fill="#111114"/>
    <rect x="16" y="12" width="90" height="5" rx="2" fill="#2A2A32"/>
    <rect x="222" y="12" width="58" height="18" rx="9" fill="#C8FF0015" stroke="#C8FF0035" stroke-width="0.5"/>
    <text x="251" y="24" fill="#C8FF00" font-family="monospace" font-size="10" text-anchor="middle" font-weight="700">99.9%</text>
    <rect x="16" y="60" width="265" height="3" rx="1" fill="#2A2A32"/>
    <rect x="20" y="42" width="30" height="18" rx="2" fill="#0057FF" opacity="0.85"/>
    <rect x="54" y="42" width="30" height="18" rx="2" fill="#0057FF" opacity="0.85"/>
    <rect x="88" y="42" width="30" height="18" rx="2" fill="#0057FF" opacity="0.85"/>
    <rect x="122" y="42" width="30" height="18" rx="2" fill="#1E1E24" stroke="#FF003D" stroke-width="1.5" stroke-dasharray="2,2"/>
    <text x="137" y="54" fill="#FF003D" font-family="monospace" font-size="9" text-anchor="middle" font-weight="700">OOS</text>
    <rect x="156" y="42" width="30" height="18" rx="2" fill="#0057FF" opacity="0.7"/>
    <rect x="190" y="42" width="30" height="18" rx="2" fill="#0057FF" opacity="0.85"/>
    <rect x="224" y="42" width="30" height="18" rx="2" fill="#0057FF" opacity="0.85"/>
    <line x1="16" y1="52" x2="265" y2="52" stroke="#C8FF00" stroke-width="1" stroke-dasharray="4,2" opacity="0.65"/>
    <circle cx="16" cy="52" r="3" fill="#C8FF00"/>
    <rect x="16" y="108" width="265" height="3" rx="1" fill="#2A2A32"/>
    <rect x="20" y="88" width="34" height="20" rx="2" fill="#FF003D" opacity="0.35"/>
    <rect x="60" y="88" width="34" height="20" rx="2" fill="#FF003D" opacity="0.35"/>
    <rect x="100" y="88" width="34" height="20" rx="2" fill="#FF003D" opacity="0.35"/>
    <rect x="140" y="88" width="34" height="20" rx="2" fill="#FF003D" opacity="0.35"/>
    <rect x="180" y="88" width="34" height="20" rx="2" fill="#FF003D" opacity="0.2"/>
    <rect x="122" y="38" width="36" height="28" rx="3" fill="none" stroke="#C8FF00" stroke-width="1.2" stroke-opacity="0.9"/>
    <rect x="122" y="38" width="36" height="9" rx="3" fill="#C8FF0025"/>
    <text x="140" y="46" fill="#C8FF00" font-family="monospace" font-size="6" text-anchor="middle">DETECT</text>
    <rect x="16" y="122" width="265" height="5" rx="2" fill="#1A1A1E"/>
    <rect x="16" y="122" width="170" height="5" rx="2" fill="#0057FF"/>
    <circle cx="186" cy="124" r="5" fill="#0057FF"/>
    <text x="196" y="128" fill="#3380FF" font-family="monospace" font-size="10">64%</text>
    <rect x="16" y="140" width="126" height="52" rx="6" fill="#111114" stroke="#1E1E24" stroke-width="0.5"/>
    <text x="20" y="172" fill="#C8FF00" font-family="monospace" font-size="20" font-weight="700">87%</text>
    <rect x="20" y="175" width="72" height="3" rx="1" fill="#1A1A1E"/>
    <rect x="152" y="140" width="62" height="52" rx="6" fill="#FF003D06" stroke="#FF003D22" stroke-width="0.5"/>
    <text x="156" y="172" fill="#FF003D" font-family="monospace" font-size="20" font-weight="700">2.1%</text>
    <rect x="224" y="140" width="58" height="52" rx="6" fill="#C8FF0004" stroke="#C8FF001A" stroke-width="0.5"/>
    <text x="228" y="172" fill="#C8FF00" font-family="monospace" font-size="20" font-weight="700">+5%</text>
    <rect x="16" y="204" width="265" height="100" rx="8" fill="#111114" stroke="#1E1E24" stroke-width="0.5"/>
    <rect x="24" y="222" width="240" height="6" rx="3" fill="#1A1A1E"/>
    <rect x="24" y="222" width="204" height="6" rx="3" fill="#0057FF" opacity="0.7"/>
    <rect x="24" y="236" width="240" height="6" rx="3" fill="#1A1A1E"/>
    <rect x="24" y="236" width="148" height="6" rx="3" fill="#FF003D" opacity="0.5"/>
    <rect x="24" y="250" width="240" height="6" rx="3" fill="#1A1A1E"/>
    <rect x="24" y="250" width="216" height="6" rx="3" fill="#C8FF00" opacity="0.65"/>
    <rect x="24" y="264" width="240" height="6" rx="3" fill="#1A1A1E"/>
    <rect x="24" y="264" width="175" height="6" rx="3" fill="#0057FF" opacity="0.5"/>
    <text x="24" y="285" fill="#C8FF00" font-family="monospace" font-size="9" font-weight="700">Planogram · OOS · POSM · Price · Share</text>
  </g>
  <rect x="40" y="36" width="40" height="3" rx="1.5" fill="#3380FF" opacity="0.9"/>
  <rect x="40" y="46" width="112" height="20" rx="10" fill="#3380FF12" stroke="#3380FF35" stroke-width="0.5"/>
  <circle cx="53" cy="56" r="3" fill="#3380FF"/>
  <text x="62" y="60" fill="#3380FF" font-family="Arial" font-size="9" font-weight="700" letter-spacing="0.1em">VISION AI</text>
  <text x="40" y="126" fill="#FFFFFF" font-family="Georgia, serif" font-size="30" font-weight="700" letter-spacing="-0.4">How Vision AI</text>
  <text x="40" y="162" fill="#FFFFFF" font-family="Georgia, serif" font-size="30" font-weight="700" letter-spacing="-0.4">Transforms</text>
  <text x="40" y="198" fill="#3380FF" font-family="Georgia, serif" font-size="30" font-weight="700" letter-spacing="-0.4">Merchandising</text>
  <text x="40" y="234" fill="#FFFFFF" font-family="Georgia, serif" font-size="30" font-weight="700" letter-spacing="-0.4">in 2026</text>
  <text x="40" y="276" fill="#A0A0B0" font-family="Arial" font-size="13">OOS detection in 2 seconds. 99.9% accuracy.</text>
  <text x="40" y="294" fill="#A0A0B0" font-family="Arial" font-size="13">Real shelf data. Zero manual reports.</text>
  <rect x="40" y="332" width="3" height="20" rx="1.5" fill="#3380FF"/>
  <text x="50" y="348" fill="#666670" font-family="Arial" font-size="12">Vision AI · Merchandising · 6 min read</text>
  <text x="638" y="380" fill="#282828" font-family="Georgia, serif" font-size="14" font-weight="700" text-anchor="end">PICSELL+</text>
</g>
</svg>