<svg width="1200" height="630" viewBox="0 0 680 400" role="img" xmlns="http://www.w3.org/2000/svg">
<title>PICSELL Blog — Why Shelf Data Will Outvalue</title>
<defs>
  <linearGradient id="bg" x1="0%" y1="0%" x2="100%" y2="100%"><stop offset="0%" stop-color="#060608"/><stop offset="100%" stop-color="#0A0E08"/></linearGradient>
  <linearGradient id="gl" x1="0%" y1="0%" x2="100%" y2="100%"><stop offset="0%" stop-color="#C8FF00" stop-opacity="0.09"/><stop offset="100%" stop-color="#C8FF00" stop-opacity="0"/></linearGradient>
  <clipPath id="cr"><rect width="680" height="400" rx="12"/></clipPath>
</defs>
<g clip-path="url(#cr)">
  <rect width="680" height="400" fill="url(#bg)"/>
  <pattern id="dt" x="0" y="0" width="30" height="30" patternUnits="userSpaceOnUse"><circle cx="1" cy="1" r="1" fill="#FFFFFF" opacity="0.042"/></pattern>
  <rect width="680" height="400" fill="url(#dt)"/>
  
  <ellipse cx="570" cy="190" rx="250" ry="200" fill="url(#gl)"/>
  <g transform="translate(365,45)">
    <rect x="0" y="0" width="290" height="310" rx="14" fill="#0D0D0F" stroke="#1E1E24" stroke-width="0.8"/>
    <rect x="0" y="0" width="290" height="40" rx="14" fill="#111114"/>
    <rect x="0" y="28" width="290" height="12" fill="#111114"/>
    <rect x="16" y="10" width="100" height="5" rx="2" fill="#2A2A32"/>
    <rect x="215" y="10" width="60" height="18" rx="9" fill="#C8FF0015" stroke="#C8FF0040" stroke-width="0.5"/>
    <text x="245" y="22" fill="#C8FF00" font-family="monospace" font-size="9" text-anchor="middle" font-weight="700">$164B 2030</text>
    <line x1="30" y1="240" x2="270" y2="240" stroke="#1A1A1E" stroke-width="0.8"/>
    <line x1="30" y1="200" x2="270" y2="200" stroke="#1A1A1E" stroke-width="0.5" stroke-dasharray="2,3"/>
    <line x1="30" y1="160" x2="270" y2="160" stroke="#1A1A1E" stroke-width="0.5" stroke-dasharray="2,3"/>
    <line x1="30" y1="120" x2="270" y2="120" stroke="#1A1A1E" stroke-width="0.5" stroke-dasharray="2,3"/>
    <line x1="30" y1="80" x2="270" y2="80" stroke="#1A1A1E" stroke-width="0.5" stroke-dasharray="2,3"/>
    <text x="24" y="244" fill="#50505A" font-family="monospace" font-size="8" text-anchor="end">0</text>
    <text x="24" y="164" fill="#50505A" font-family="monospace" font-size="8" text-anchor="end">$80B</text>
    <text x="24" y="84" fill="#50505A" font-family="monospace" font-size="8" text-anchor="end">$164B</text>
    <text x="50" y="254" fill="#50505A" font-family="monospace" font-size="8" text-anchor="middle">2024</text>
    <text x="110" y="254" fill="#50505A" font-family="monospace" font-size="8" text-anchor="middle">2026</text>
    <text x="195" y="254" fill="#50505A" font-family="monospace" font-size="8" text-anchor="middle">2028</text>
    <text x="260" y="254" fill="#C8FF00" font-family="monospace" font-size="8" text-anchor="middle" font-weight="700">2030</text>
    <path d="M50 228 C80 220 110 210 140 195 C170 178 200 155 230 130 C250 112 260 90 270 78 L270 240 L50 240 Z" fill="#C8FF00" opacity="0.06"/>
    <path d="M50 228 C80 220 110 210 140 195 C170 178 200 155 230 130 C250 112 260 90 270 78" stroke="#C8FF00" stroke-width="2" fill="none" stroke-linecap="round"/>
    <circle cx="50" cy="228" r="4" fill="#C8FF00"/>
    <circle cx="140" cy="195" r="4" fill="#C8FF00"/>
    <circle cx="230" cy="130" r="4" fill="#C8FF00"/>
    <circle cx="270" cy="78" r="6" fill="#C8FF00"/>
    <circle cx="270" cy="78" r="11" fill="#C8FF00" opacity="0.2"/>
    <path d="M50 215 C110 208 170 204 230 198 C255 195 265 192 270 188" stroke="#FF003D" stroke-width="1.5" fill="none" stroke-dasharray="3,2" stroke-opacity="0.7"/>
    <circle cx="50" cy="215" r="3" fill="#FF003D" opacity="0.7"/>
    <circle cx="270" cy="188" r="4" fill="#FF003D" opacity="0.7"/>
    <rect x="190" y="58" width="80" height="14" rx="4" fill="#C8FF0018" stroke="#C8FF0030" stroke-width="0.5"/>
    <text x="230" y="68" fill="#C8FF00" font-family="monospace" font-size="9" text-anchor="middle" font-weight="700">+32% CAGR</text>
    <line x1="270" y1="78" x2="270" y2="58" stroke="#C8FF00" stroke-width="0.8"/>
    <line x1="30" y1="272" x2="52" y2="272" stroke="#C8FF00" stroke-width="2"/>
    <rect x="56" y="267" width="80" height="5" rx="2" fill="#2A2A32"/>
    <rect x="56" y="275" width="60" height="3" rx="1" fill="#1A1A1E"/>
    <line x1="150" y1="272" x2="172" y2="272" stroke="#FF003D" stroke-width="1.5" stroke-dasharray="3,2" opacity="0.7"/>
    <rect x="176" y="267" width="80" height="5" rx="2" fill="#2A2A32"/>
    <rect x="176" y="275" width="60" height="3" rx="1" fill="#1A1A1E"/>
  </g>
  <rect x="40" y="36" width="40" height="3" rx="1.5" fill="#C8FF00" opacity="0.9"/>
  <rect x="40" y="46" width="112" height="20" rx="10" fill="#C8FF0012" stroke="#C8FF0035" stroke-width="0.5"/>
  <circle cx="53" cy="56" r="3" fill="#C8FF00"/>
  <text x="62" y="60" fill="#C8FF00" font-family="Arial" font-size="9" font-weight="700" letter-spacing="0.1em">TRENDS · DATA</text>
  <text x="40" y="126" fill="#FFFFFF" font-family="Georgia, serif" font-size="30" font-weight="700" letter-spacing="-0.4">Why Shelf Data</text>
  <text x="40" y="162" fill="#FFFFFF" font-family="Georgia, serif" font-size="30" font-weight="700" letter-spacing="-0.4">Will Outvalue</text>
  <text x="40" y="198" fill="#C8FF00" font-family="Georgia, serif" font-size="30" font-weight="700" letter-spacing="-0.4">Your Advertising</text>
  <text x="40" y="234" fill="#FFFFFF" font-family="Georgia, serif" font-size="30" font-weight="700" letter-spacing="-0.4">Budget</text>
  <text x="40" y="276" fill="#A0A0B0" font-family="Arial" font-size="13">AI in retail reaches $164B by 2030.</text>
  <text x="40" y="294" fill="#A0A0B0" font-family="Arial" font-size="13">The data you collect today wins 2030.</text>
  <rect x="40" y="332" width="3" height="20" rx="1.5" fill="#C8FF00"/>
  <text x="50" y="348" fill="#666670" font-family="Arial" font-size="12">Trends · Retail Data · 7 min read</text>
  <text x="638" y="380" fill="#282828" font-family="Georgia, serif" font-size="14" font-weight="700" text-anchor="end">PICSELL+</text>
</g>
</svg>