<svg width="1200" height="630" viewBox="0 0 680 400" role="img" xmlns="http://www.w3.org/2000/svg">
<title>PICSELL Blog — Offline-First: Why It Is Critical</title>
<defs>
  <linearGradient id="bg" x1="0%" y1="0%" x2="100%" y2="100%">
    <stop offset="0%" stop-color="#060608"/>
    <stop offset="100%" stop-color="#0A0C10"/>
  </linearGradient>
  <linearGradient id="gl" x1="0%" y1="0%" x2="100%" y2="100%">
    <stop offset="0%" stop-color="#FF5C00" stop-opacity="0.12"/>
    <stop offset="100%" stop-color="#FF5C00" stop-opacity="0"/>
  </linearGradient>
  <clipPath id="cr"><rect width="680" height="400" rx="12"/></clipPath>
</defs>
<g clip-path="url(#cr)">
  <rect width="680" height="400" fill="url(#bg)"/>
  <pattern id="dots" x="0" y="0" width="30" height="30" patternUnits="userSpaceOnUse">
    <circle cx="1" cy="1" r="1" fill="#FFFFFF" opacity="0.042"/>
  </pattern>
  <rect width="680" height="400" fill="url(#dots)"/>
  
  <ellipse cx="565" cy="130" rx="200" ry="150" fill="url(#gl)"/>
  <g transform="translate(360,48)">
    <rect x="0" y="0" width="130" height="205" rx="12" fill="#0D0D0F" stroke="#1E1E24" stroke-width="0.8"/>
    <rect x="0" y="0" width="130" height="32" rx="12" fill="#111114"/>
    <rect x="0" y="20" width="130" height="12" fill="#111114"/>
    <rect x="10" y="8" width="50" height="5" rx="2" fill="#2A2A32"/>
    <rect x="82" y="9" width="40" height="14" rx="7" fill="#FF003D12" stroke="#FF003D30" stroke-width="0.5"/>
    <rect x="88" y="13" width="7" height="6" rx="3" fill="#FF003D"/>
    <rect x="10" y="44" width="110" height="7" rx="3" fill="#0057FF" opacity="0.8"/>
    <rect x="10" y="57" width="82" height="4" rx="2" fill="#1A1A1E"/>
    <rect x="10" y="69" width="110" height="7" rx="3" fill="#0057FF" opacity="0.6"/>
    <rect x="10" y="82" width="92" height="4" rx="2" fill="#1A1A1E"/>
    <rect x="10" y="94" width="110" height="7" rx="3" fill="#0057FF" opacity="0.4"/>
    <rect x="10" y="120" width="110" height="28" rx="6" fill="#111114" stroke="#1E1E24" stroke-width="0.5"/>
    <text x="16" y="139" fill="#FF5C00" font-family="monospace" font-size="9">3 queued...</text>
    <rect x="10" y="155" width="110" height="28" rx="6" fill="#111114" stroke="#1E1E24" stroke-width="0.5"/>
    <rect x="16" y="163" width="52" height="4" rx="2" fill="#2A2A32"/>
    <text x="65" y="218" fill="#C8FF00" font-family="monospace" font-size="10" text-anchor="middle" font-weight="700">Works offline</text>
    <path d="M136 96 L153 96" stroke="#C8FF00" stroke-width="1.5" fill="none"/>
    <polygon points="151,93 155,96 151,99" fill="#C8FF00"/>
    <rect x="160" y="0" width="130" height="205" rx="12" fill="#0D0D0F" stroke="#C8FF0032" stroke-width="0.8"/>
    <rect x="160" y="0" width="130" height="32" rx="12" fill="#0D1208"/>
    <rect x="160" y="20" width="130" height="12" fill="#0D1208"/>
    <rect x="170" y="8" width="50" height="5" rx="2" fill="#2A2A32"/>
    <rect x="240" y="9" width="40" height="14" rx="7" fill="#C8FF0015" stroke="#C8FF0035" stroke-width="0.5"/>
    <circle cx="248" cy="16" r="3" fill="#C8FF00"/>
    <rect x="170" y="44" width="110" height="20" rx="5" fill="#C8FF0008" stroke="#C8FF0020" stroke-width="0.5"/>
    <circle cx="179" cy="54" r="4" fill="#C8FF00" opacity="0.8"/>
    <rect x="188" y="49" width="65" height="4" rx="2" fill="#2A2A32"/>
    <rect x="170" y="72" width="110" height="20" rx="5" fill="#C8FF0008" stroke="#C8FF0020" stroke-width="0.5"/>
    <circle cx="179" cy="82" r="4" fill="#C8FF00" opacity="0.8"/>
    <rect x="188" y="77" width="72" height="4" rx="2" fill="#2A2A32"/>
    <rect x="170" y="100" width="110" height="20" rx="5" fill="#C8FF0008" stroke="#C8FF0020" stroke-width="0.5"/>
    <circle cx="179" cy="110" r="4" fill="#C8FF00" opacity="0.8"/>
    <rect x="170" y="132" width="110" height="8" rx="4" fill="#1A1A1E"/>
    <rect x="170" y="132" width="110" height="8" rx="4" fill="#C8FF00" opacity="0.7"/>
    <text x="225" y="156" fill="#C8FF00" font-family="monospace" font-size="9" text-anchor="middle">100% synced</text>
    <rect x="170" y="162" width="110" height="24" rx="6" fill="#C8FF0010" stroke="#C8FF0030" stroke-width="0.5"/>
    <text x="225" y="178" fill="#C8FF00" font-family="monospace" font-size="10" text-anchor="middle" font-weight="700">ERP updated</text>
    <text x="225" y="218" fill="#C8FF00" font-family="monospace" font-size="10" text-anchor="middle" font-weight="700">Auto sync</text>
    <rect x="0" y="230" width="290" height="50" rx="10" fill="#111114" stroke="#1E1E24" stroke-width="0.5"/>
    <rect x="5" y="240" width="3" height="30" rx="1" fill="#0057FF"/>
    <rect x="5" y="240" width="3" height="15" rx="1" fill="#FFD700"/>
    <rect x="15" y="246" width="265" height="5" rx="2" fill="#1A1A1E"/>
    <rect x="15" y="257" width="190" height="4" rx="2" fill="#161618"/>
    <rect x="15" y="267" width="230" height="4" rx="2" fill="#161618"/>
  </g>
  <!-- Accent bar top-left -->
  <rect x="40" y="36" width="40" height="3" rx="1.5" fill="#FF5C00" opacity="0.9"/>
  <!-- Category badge -->
  <rect x="40" y="46" width="108" height="20" rx="10" fill="#FF5C0012" stroke="#FF5C0035" stroke-width="0.5"/>
  <circle cx="53" cy="56" r="3" fill="#FF5C00"/>
  <text x="62" y="60" fill="#FF5C00" font-family="Arial, sans-serif" font-size="9" font-weight="700" letter-spacing="0.1em" text-transform="uppercase">TECHNOLOGY · SFA</text>
  <!-- Lines -->
  <text x="40" y="126" fill="#FFFFFF" font-family="Georgia, serif" font-size="30" font-weight="700" letter-spacing="-0.4">Offline-First:</text>
  <text x="40" y="162" fill="#FFFFFF" font-family="Georgia, serif" font-size="30" font-weight="700" letter-spacing="-0.4">Why It Is Critical</text>
  <text x="40" y="198" fill="#FF5C00" font-family="Georgia, serif" font-size="30" font-weight="700" letter-spacing="-0.4">for FMCG Field</text>
  <text x="40" y="234" fill="#FFFFFF" font-family="Georgia, serif" font-size="30" font-weight="700" letter-spacing="-0.4">Sales in Ukraine</text>
  <!-- Sub -->
  <text x="40" y="276" fill="#A0A0B0" font-family="Arial, sans-serif" font-size="13">Why most Western SFA systems fail</text>
  <text x="40" y="294" fill="#A0A0B0" font-family="Arial, sans-serif" font-size="13">in the field — and how to fix it.</text>
  <!-- Meta -->
  <rect x="40" y="332" width="3" height="20" rx="1.5" fill="#FF5C00"/>
  <text x="50" y="348" fill="#666670" font-family="Arial, sans-serif" font-size="12">Technology · SFA · 4 min read</text>
  <!-- Logo -->
  <text x="638" y="380" fill="#282828" font-family="Georgia, serif" font-size="14" font-weight="700" text-anchor="end">PICSELL+</text>
</g>
</svg>