<svg width="1200" height="630" viewBox="0 0 680 400" role="img" xmlns="http://www.w3.org/2000/svg">
<title>PICSELL Blog — FMCG in 2050: The Shelf That</title>
<defs>
  <linearGradient id="bg" x1="0%" y1="0%" x2="100%" y2="100%"><stop offset="0%" stop-color="#030308"/><stop offset="100%" stop-color="#08060F"/></linearGradient>
  <linearGradient id="gl" x1="0%" y1="0%" x2="100%" y2="100%"><stop offset="0%" stop-color="#7B3FFF" stop-opacity="0.18"/><stop offset="100%" stop-color="#7B3FFF" stop-opacity="0"/></linearGradient>
  <clipPath id="cr"><rect width="680" height="400" rx="12"/></clipPath>
</defs>
<g clip-path="url(#cr)">
  <rect width="680" height="400" fill="url(#bg)"/>
  <pattern id="dt" x="0" y="0" width="30" height="30" patternUnits="userSpaceOnUse"><circle cx="1" cy="1" r="1" fill="#FFFFFF" opacity="0.042"/></pattern>
  <rect width="680" height="400" fill="url(#dt)"/>
  
  <ellipse cx="280" cy="200" rx="280" ry="220" fill="#7B3FFF" opacity="0.12"/>
  <ellipse cx="640" cy="300" rx="180" ry="140" fill="#00E5FF" opacity="0.07"/>
  <circle cx="60" cy="38" r="1" fill="white" opacity="0.4"/>
  <circle cx="150" cy="15" r="1.5" fill="white" opacity="0.3"/>
  <circle cx="300" cy="25" r="1" fill="#C8FF00" opacity="0.5"/>
  <circle cx="500" cy="18" r="1" fill="white" opacity="0.3"/>
  <circle cx="660" cy="35" r="1" fill="#A87FFF" opacity="0.6"/>
  <g transform="translate(368,38)">
    <rect x="0" y="0" width="295" height="322" rx="16" fill="#08080F" stroke="#1A1A2E" stroke-width="0.8"/>
    <rect x="0" y="0" width="295" height="36" rx="16" fill="#0D0D1A"/>
    <rect x="0" y="24" width="295" height="12" fill="#0D0D1A"/>
    <rect x="14" y="10" width="50" height="16" rx="8" fill="#7B3FFF18" stroke="#7B3FFF40" stroke-width="0.5"/>
    <text x="39" y="21" fill="#A87FFF" font-family="monospace" font-size="9" text-anchor="middle" font-weight="700">2050</text>
    <rect x="220" y="10" width="60" height="16" rx="8" fill="#00E5FF08" stroke="#00E5FF25" stroke-width="0.5"/>
    <circle cx="231" cy="18" r="3" fill="#00E5FF" opacity="0.8"/>
    <rect x="239" y="14" width="34" height="5" rx="2" fill="#00E5FF40"/>
    <rect x="14" y="50" width="267" height="64" rx="8" fill="#0D0D1A" stroke="#1A1A2E" stroke-width="0.5"/>
    <rect x="22" y="58" width="22" height="34" rx="3" fill="#7B3FFF30" stroke="#7B3FFF50" stroke-width="0.5"/>
    <rect x="48" y="58" width="22" height="34" rx="3" fill="#0057FF30" stroke="#0057FF50" stroke-width="0.5"/>
    <rect x="74" y="58" width="22" height="34" rx="3" fill="#7B3FFF30" stroke="#7B3FFF50" stroke-width="0.5"/>
    <rect x="100" y="58" width="22" height="34" rx="3" fill="#00E5FF06" stroke="#00E5FF" stroke-width="1" stroke-dasharray="2,1"/>
    <text x="111" y="78" fill="#00E5FF" font-family="monospace" font-size="7" text-anchor="middle">AUTO</text>
    <rect x="126" y="58" width="22" height="34" rx="3" fill="#0057FF30" stroke="#0057FF50" stroke-width="0.5"/>
    <rect x="152" y="58" width="22" height="34" rx="3" fill="#7B3FFF30" stroke="#7B3FFF50" stroke-width="0.5"/>
    <line x1="14" y1="76" x2="265" y2="76" stroke="#C8FF00" stroke-width="0.6" stroke-dasharray="3,2" opacity="0.5"/>
    <circle cx="14" cy="76" r="2" fill="#C8FF00"/>
    <path d="M100 44 L100 34 Q100 29 105 29 L152 29" stroke="#00E5FF" stroke-width="1.5" fill="none" stroke-linecap="round"/>
    <circle cx="152" cy="29" r="5" fill="#00E5FF" opacity="0.6"/>
    <circle cx="152" cy="29" r="9" fill="#00E5FF" opacity="0.15"/>
    <text x="165" y="33" fill="#00E5FF" font-family="monospace" font-size="7">Robot refill</text>
    <rect x="14" y="118" width="267" height="20" rx="4" fill="#0D0D1A"/>
    <text x="22" y="131" fill="#A87FFF" font-family="monospace" font-size="7">AI: real-time pricing · competitor scan · intent 98.7%</text>
    <ellipse cx="152" cy="175" rx="14" ry="16" fill="#1A1A2E" stroke="#2A2A3E" stroke-width="0.5"/>
    <rect x="138" y="191" width="28" height="40" rx="4" fill="#1A1A2E" stroke="#2A2A3E" stroke-width="0.5"/>
    <ellipse cx="152" cy="175" rx="20" ry="22" fill="none" stroke="#7B3FFF" stroke-width="0.8" stroke-dasharray="2,3" opacity="0.7"/>
    <line x1="50" y1="150" x2="138" y2="174" stroke="#00E5FF" stroke-width="0.6" stroke-opacity="0.5" stroke-dasharray="2,2"/>
    <rect x="190" y="148" width="80" height="55" rx="8" fill="#0D0D1A" stroke="#1A1A2E" stroke-width="0.5"/>
    <rect x="197" y="157" width="50" height="4" rx="2" fill="#2A2A3E"/>
    <text x="200" y="175" fill="#C8FF00" font-family="monospace" font-size="9" font-weight="700">Intent: 94%</text>
    <rect x="197" y="181" width="38" height="10" rx="5" fill="#C8FF0020" stroke="#C8FF0040" stroke-width="0.5"/>
    <text x="216" y="189" fill="#C8FF00" font-family="monospace" font-size="7" text-anchor="middle">AUTO</text>
    <rect x="14" y="240" width="267" height="70" rx="8" fill="#0D0D1A" stroke="#1A1A2E" stroke-width="0.5"/>
    <rect x="22" y="254" width="240" height="5" rx="2" fill="#7B3FFF" opacity="0.5"/>
    <rect x="22" y="265" width="240" height="5" rx="2" fill="#0057FF" opacity="0.5"/>
    <rect x="22" y="276" width="240" height="5" rx="2" fill="#00E5FF" opacity="0.4"/>
    <text x="22" y="296" fill="#50505A" font-family="monospace" font-size="7">AI scanned · intent · purchased · delivered</text>
  </g>
  <rect x="40" y="36" width="40" height="3" rx="1.5" fill="#A87FFF" opacity="0.9"/>
  <rect x="40" y="46" width="112" height="20" rx="10" fill="#A87FFF12" stroke="#A87FFF35" stroke-width="0.5"/>
  <circle cx="53" cy="56" r="3" fill="#A87FFF"/>
  <text x="62" y="60" fill="#A87FFF" font-family="Arial" font-size="9" font-weight="700" letter-spacing="0.1em">FUTURISM · 2050</text>
  <text x="40" y="126" fill="#FFFFFF" font-family="Georgia, serif" font-size="30" font-weight="700" letter-spacing="-0.4">FMCG in 2050:</text>
  <text x="40" y="162" fill="#FFFFFF" font-family="Georgia, serif" font-size="30" font-weight="700" letter-spacing="-0.4">The Shelf That</text>
  <text x="40" y="198" fill="#A87FFF" font-family="Georgia, serif" font-size="30" font-weight="700" letter-spacing="-0.4">Sells Itself —</text>
  <text x="40" y="234" fill="#FFFFFF" font-family="Georgia, serif" font-size="30" font-weight="700" letter-spacing="-0.4">No Agent Needed</text>
  <text x="40" y="276" fill="#A0A0B0" font-family="Arial" font-size="13">Autonomous shelves. Neural interfaces.</text>
  <text x="40" y="294" fill="#A0A0B0" font-family="Arial" font-size="13">A realistic forecast based on 2026 trends.</text>
  <rect x="40" y="332" width="3" height="20" rx="1.5" fill="#A87FFF"/>
  <text x="50" y="348" fill="#666670" font-family="Arial" font-size="12">Futurism · 10 min read · PICSELL Team</text>
  <text x="638" y="380" fill="#282828" font-family="Georgia, serif" font-size="14" font-weight="700" text-anchor="end">PICSELL+</text>
</g>
</svg>