<?xml version='1.0' encoding='utf-8'?>
<svg xmlns="http://www.w3.org/2000/svg" width="1200" height="630" viewBox="0 0 680 400">
<title>PICSELL Blog — 5 ознак неефективної польової команди</title>
<defs>
  <linearGradient id="bg1" x1="0%" y1="0%" x2="100%" y2="100%"><stop offset="0%" stop-color="#060608"/><stop offset="100%" stop-color="#0D0D12"/></linearGradient>
  <linearGradient id="glowG" x1="0%" y1="0%" x2="100%" y2="100%"><stop offset="0%" stop-color="#0057FF" stop-opacity="0.18"/><stop offset="100%" stop-color="#0057FF" stop-opacity="0"/></linearGradient>
  <clipPath id="roundClip"><rect width="680" height="400" rx="12"/></clipPath>
</defs>
<g clip-path="url(#roundClip)">
  <rect width="680" height="400" fill="url(#bg1)"/>
  <pattern id="dots" x="0" y="0" width="30" height="30" patternUnits="userSpaceOnUse"><circle cx="1" cy="1" r="1" fill="#FFFFFF" opacity="0.04"/></pattern>
  <rect width="680" height="400" fill="url(#dots)"/>
  <ellipse cx="160" cy="180" rx="200" ry="160" fill="url(#glowG)"/>
  <g transform="translate(400, 60)">
    <rect x="0" y="0" width="200" height="340" rx="20" fill="#111114" stroke="#1E1E24" stroke-width="1"/>
    <rect x="8" y="16" width="184" height="308" rx="14" fill="#0D0D0F"/>
    <rect x="8" y="16" width="184" height="52" rx="14" fill="#111114"/>
    <rect x="8" y="46" width="184" height="22" fill="#111114"/>
    <circle cx="30" cy="40" r="8" fill="#1A1A1E"/>
    <rect x="44" y="32" width="60" height="5" rx="2" fill="#222228"/>
    <rect x="44" y="40" width="40" height="4" rx="2" fill="#1A1A1E"/>
    <rect x="110" y="32" width="68" height="16" rx="8" fill="#C8FF0015" stroke="#C8FF0040" stroke-width="0.5"/>
    <circle cx="122" cy="40" r="3" fill="#C8FF00"/>
    <rect x="129" y="37" width="38" height="5" rx="2" fill="#C8FF0080"/>
    <line x1="30" y1="80" x2="30" y2="200" stroke="#1E1E24" stroke-width="1.5" stroke-dasharray="3,3"/>
    <circle cx="30" cy="88" r="7" fill="#C8FF00"/>
    <rect x="44" y="83" width="80" height="6" rx="3" fill="#222228"/>
    <rect x="44" y="92" width="50" height="4" rx="2" fill="#1A1A1E"/>
    <rect x="130" y="83" width="42" height="10" rx="5" fill="#C8FF0018" stroke="#C8FF0030" stroke-width="0.5"/>
    <rect x="136" y="86" width="28" height="4" rx="2" fill="#C8FF0070"/>
    <circle cx="30" cy="128" r="7" fill="#0057FF"/>
    <circle cx="30" cy="128" r="11" fill="none" stroke="#0057FF" stroke-width="1" stroke-opacity="0.3"/>
    <rect x="44" y="123" width="70" height="6" rx="3" fill="#222228"/>
    <rect x="44" y="132" width="45" height="4" rx="2" fill="#1A1A1E"/>
    <rect x="130" y="122" width="48" height="10" rx="5" fill="#0057FF18" stroke="#0057FF40" stroke-width="0.5"/>
    <rect x="136" y="125" width="34" height="4" rx="2" fill="#0057FF70"/>
    <circle cx="30" cy="168" r="7" fill="#1E1E24" stroke="#2A2A32" stroke-width="1"/>
    <rect x="44" y="163" width="65" height="6" rx="3" fill="#1A1A1E"/>
    <rect x="44" y="172" width="42" height="4" rx="2" fill="#161618"/>
    <rect x="14" y="218" width="80" height="52" rx="8" fill="#111114" stroke="#1E1E24" stroke-width="0.5"/>
    <text x="20" y="251" fill="#C8FF00" font-family="monospace" font-size="12" font-weight="700">+40%</text>
    <rect x="102" y="218" width="80" height="52" rx="8" fill="#111114" stroke="#1E1E24" stroke-width="0.5"/>
    <text x="108" y="251" fill="#3380FF" font-family="monospace" font-size="12" font-weight="700">7/12</text>
    <rect x="14" y="282" width="168" height="28" rx="6" fill="#FF003D08" stroke="#FF003D25" stroke-width="0.5"/>
    <circle cx="25" cy="296" r="4" fill="#FF003D"/>
    <rect x="34" y="290" width="90" height="4" rx="2" fill="#FF003D40"/>
    <rect x="34" y="298" width="120" height="3" rx="1" fill="#1E1E24"/>
  </g>
  <rect x="40" y="48" width="90" height="22" rx="11" fill="#0057FF12" stroke="#0057FF35" stroke-width="0.5"/>
  <circle cx="50" cy="59" r="3" fill="#0057FF"/>
  <rect x="58" y="55" width="62" height="5" rx="2.5" fill="#3380FF80"/>
  <text x="40" y="130" fill="#FFFFFF" font-family="Georgia, serif" font-size="32" font-weight="700" letter-spacing="-0.5">5 ознак що</text>
  <text x="40" y="168" fill="#FFFFFF" font-family="Georgia, serif" font-size="32" font-weight="700" letter-spacing="-0.5">ваша команда</text>
  <text x="40" y="206" fill="#0057FF" font-family="Georgia, serif" font-size="32" font-weight="700" letter-spacing="-0.5">витрачає 30%</text>
  <text x="40" y="244" fill="#FFFFFF" font-family="Georgia, serif" font-size="32" font-weight="700" letter-spacing="-0.5">часу даремно</text>
  <text x="40" y="288" fill="#A0A0B0" font-family="Arial, sans-serif" font-size="14">Чеклист для комерційних директорів</text>
  <text x="40" y="308" fill="#A0A0B0" font-family="Arial, sans-serif" font-size="14">і керівників відділів продажів FMCG</text>
  <rect x="40" y="332" width="3" height="20" rx="1.5" fill="#C8FF00"/>
  <text x="50" y="342" fill="#666670" font-family="Arial, sans-serif" font-size="12">SFA · Польові продажі · 6 хв читання</text>
  <text x="608" y="376" fill="#333338" font-family="Georgia, serif" font-size="14" font-weight="700" text-anchor="end">PICSELL+</text>
  <rect x="40" y="36" width="40" height="3" rx="1.5" fill="#C8FF00" opacity="0.8"/>
</g>
</svg>