<?xml version='1.0' encoding='utf-8'?>
<svg xmlns="http://www.w3.org/2000/svg" width="1200" height="630" viewBox="0 0 680 400">
<title>PICSELL Blog — HoReCa канал 2026</title>
<defs>
  <linearGradient id="bg2" x1="0%" y1="0%" x2="100%" y2="100%"><stop offset="0%" stop-color="#060608"/><stop offset="100%" stop-color="#0A0A0E"/></linearGradient>
  <linearGradient id="neonGlow2" x1="0%" y1="0%" x2="100%" y2="100%"><stop offset="0%" stop-color="#C8FF00" stop-opacity="0.10"/><stop offset="100%" stop-color="#C8FF00" stop-opacity="0"/></linearGradient>
  <clipPath id="rc2"><rect width="680" height="400" rx="12"/></clipPath>
</defs>
<g clip-path="url(#rc2)">
  <rect width="680" height="400" fill="url(#bg2)"/>
  <pattern id="d2" x="0" y="0" width="30" height="30" patternUnits="userSpaceOnUse"><circle cx="1" cy="1" r="1" fill="#FFFFFF" opacity="0.04"/></pattern>
  <rect width="680" height="400" fill="url(#d2)"/>
  <ellipse cx="520" cy="200" rx="220" ry="180" fill="url(#neonGlow2)"/>
  <g transform="translate(360, 40)">
    <rect x="0" y="0" width="290" height="320" rx="14" fill="#0D0D0F" stroke="#1E1E24" stroke-width="0.8"/>
    <rect x="0" y="0" width="290" height="44" rx="14" fill="#111114"/>
    <rect x="0" y="30" width="290" height="14" fill="#111114"/>
    <rect x="16" y="12" width="80" height="5" rx="2" fill="#2A2A32"/>
    <rect x="218" y="13" width="52" height="16" rx="8" fill="#C8FF0015" stroke="#C8FF0035" stroke-width="0.5"/>
    <circle cx="229" cy="21" r="3" fill="#C8FF00"/>
    <line x1="16" y1="60" x2="274" y2="60" stroke="#1A1A1E" stroke-width="0.5"/>
    <line x1="16" y1="90" x2="274" y2="90" stroke="#1A1A1E" stroke-width="0.5"/>
    <line x1="16" y1="120" x2="274" y2="120" stroke="#1A1A1E" stroke-width="0.5"/>
    <line x1="16" y1="150" x2="274" y2="150" stroke="#1A1A1E" stroke-width="0.5"/>
    <line x1="60" y1="56" x2="60" y2="180" stroke="#1A1A1E" stroke-width="0.5"/>
    <line x1="110" y1="56" x2="110" y2="180" stroke="#1A1A1E" stroke-width="0.5"/>
    <line x1="160" y1="56" x2="160" y2="180" stroke="#1A1A1E" stroke-width="0.5"/>
    <line x1="210" y1="56" x2="210" y2="180" stroke="#1A1A1E" stroke-width="0.5"/>
    <circle cx="45" cy="75" r="7" fill="#0057FF" opacity="0.9"/>
    <circle cx="45" cy="75" r="12" fill="#0057FF" opacity="0.15"/>
    <circle cx="140" cy="95" r="7" fill="#0057FF" opacity="0.9"/>
    <circle cx="140" cy="95" r="12" fill="#0057FF" opacity="0.15"/>
    <circle cx="80" cy="140" r="7" fill="#0057FF" opacity="0.9"/>
    <circle cx="200" cy="70" r="7" fill="#0057FF" opacity="0.9"/>
    <circle cx="245" cy="130" r="7" fill="#0057FF" opacity="0.9"/>
    <circle cx="90" cy="75" r="5" fill="#FF003D" opacity="0.7"/>
    <circle cx="170" cy="120" r="5" fill="#FF003D" opacity="0.7"/>
    <circle cx="120" cy="160" r="5" fill="#FF003D" opacity="0.7"/>
    <circle cx="35" cy="155" r="6" fill="#C8FF00"/>
    <circle cx="35" cy="155" r="11" fill="#C8FF00" opacity="0.15"/>
    <circle cx="180" cy="55" r="6" fill="#C8FF00"/>
    <circle cx="180" cy="55" r="11" fill="#C8FF00" opacity="0.15"/>
    <circle cx="26" cy="200" r="5" fill="#0057FF"/>
    <rect x="36" y="196" width="45" height="4" rx="2" fill="#2A2A32"/>
    <circle cx="105" cy="200" r="4" fill="#FF003D"/>
    <rect x="115" y="196" width="50" height="4" rx="2" fill="#2A2A32"/>
    <circle cx="190" cy="200" r="5" fill="#C8FF00"/>
    <rect x="200" y="196" width="42" height="4" rx="2" fill="#2A2A32"/>
    <rect x="16" y="222" width="258" height="36" rx="8" fill="#FF003D06" stroke="#FF003D20" stroke-width="0.5"/>
    <circle cx="30" cy="240" r="5" fill="#FF003D"/>
    <rect x="42" y="232" width="100" height="5" rx="2" fill="#FF003D35"/>
    <rect x="42" y="242" width="160" height="4" rx="2" fill="#1E1E24"/>
    <rect x="16" y="266" width="258" height="36" rx="8" fill="#C8FF0004" stroke="#C8FF0018" stroke-width="0.5"/>
    <circle cx="30" cy="284" r="5" fill="#C8FF00"/>
    <rect x="42" y="276" width="120" height="5" rx="2" fill="#C8FF0030"/>
  </g>
  <rect x="40" y="48" width="100" height="22" rx="11" fill="#C8FF0010" stroke="#C8FF0030" stroke-width="0.5"/>
  <circle cx="54" cy="59" r="3" fill="#C8FF00"/>
  <text x="40" y="128" fill="#FFFFFF" font-family="Georgia, serif" font-size="33" font-weight="700" letter-spacing="-0.5">HoReCa канал</text>
  <text x="40" y="166" fill="#C8FF00" font-family="Georgia, serif" font-size="33" font-weight="700" letter-spacing="-0.5">2026:</text>
  <text x="40" y="204" fill="#FFFFFF" font-family="Georgia, serif" font-size="33" font-weight="700" letter-spacing="-0.5">де бренди</text>
  <text x="40" y="242" fill="#0057FF" font-family="Georgia, serif" font-size="33" font-weight="700" letter-spacing="-0.5">виграють</text>
  <text x="40" y="282" fill="#A0A0B0" font-family="Arial, sans-serif" font-size="14">Аналіз 1,250+ барів і ресторанів України</text>
  <text x="40" y="300" fill="#A0A0B0" font-family="Arial, sans-serif" font-size="14">— тренди та несподівані відкриття 2026</text>
  <rect x="40" y="338" width="3" height="20" rx="1.5" fill="#C8FF00"/>
  <text x="50" y="352" fill="#666670" font-family="Arial, sans-serif" font-size="12">HoReCa · Аналітика ринку · 7 хв читання</text>
  <text x="638" y="376" fill="#333338" font-family="Georgia, serif" font-size="14" font-weight="700" text-anchor="end">PICSELL+</text>
  <rect x="40" y="36" width="40" height="3" rx="1.5" fill="#C8FF00" opacity="0.8"/>
</g>
</svg>