<svg width="1200" height="630" viewBox="0 0 680 400" role="img" xmlns="http://www.w3.org/2000/svg">
<title>PICSELL Blog — Agentic AI in FMCG: The End of Excel</title>
<defs>
  <linearGradient id="bg" x1="0%" y1="0%" x2="100%" y2="100%"><stop offset="0%" stop-color="#060608"/><stop offset="100%" stop-color="#0C0A14"/></linearGradient>
  <linearGradient id="gl" x1="0%" y1="0%" x2="100%" y2="100%"><stop offset="0%" stop-color="#7B3FFF" stop-opacity="0.14"/><stop offset="100%" stop-color="#7B3FFF" stop-opacity="0"/></linearGradient>
  <clipPath id="cr"><rect width="680" height="400" rx="12"/></clipPath>
</defs>
<g clip-path="url(#cr)">
  <rect width="680" height="400" fill="url(#bg)"/>
  <pattern id="dt" x="0" y="0" width="30" height="30" patternUnits="userSpaceOnUse"><circle cx="1" cy="1" r="1" fill="#FFFFFF" opacity="0.042"/></pattern>
  <rect width="680" height="400" fill="url(#dt)"/>
  
  <ellipse cx="580" cy="190" rx="240" ry="200" fill="url(#gl)"/>
  <g transform="translate(368,45)">
    <rect x="0" y="0" width="290" height="310" rx="14" fill="#0D0D0F" stroke="#1A1A2E" stroke-width="0.8"/>
    <rect x="0" y="0" width="290" height="40" rx="14" fill="#111114"/>
    <rect x="0" y="28" width="290" height="12" fill="#111114"/>
    <rect x="16" y="10" width="80" height="5" rx="2" fill="#2A2A32"/>
    <rect x="200" y="12" width="75" height="16" rx="8" fill="#7B3FFF18" stroke="#7B3FFF40" stroke-width="0.5"/>
    <circle cx="212" cy="20" r="3" fill="#A87FFF"/>
    <rect x="220" y="16" width="48" height="7" rx="3" fill="#7B3FFF60"/>
    <rect x="16" y="52" width="120" height="58" rx="8" fill="#111114" stroke="#1E1E24" stroke-width="0.5"/>
    <rect x="22" y="62" width="20" height="20" rx="5" fill="#7B3FFF18" stroke="#7B3FFF30" stroke-width="0.5"/>
    <rect x="46" y="62" width="75" height="5" rx="2" fill="#2A2A32"/>
    <rect x="46" y="71" width="58" height="4" rx="2" fill="#1A1A1E"/>
    <rect x="22" y="88" width="100" height="3" rx="1" fill="#1A1A1E"/>
    <rect x="22" y="93" width="78" height="3" rx="1" fill="#161618"/>
    <rect x="152" y="52" width="120" height="58" rx="8" fill="#111114" stroke="#1E1E24" stroke-width="0.5"/>
    <rect x="158" y="62" width="20" height="20" rx="5" fill="#0057FF18" stroke="#0057FF30" stroke-width="0.5"/>
    <rect x="182" y="62" width="75" height="5" rx="2" fill="#2A2A32"/>
    <rect x="182" y="71" width="58" height="4" rx="2" fill="#1A1A1E"/>
    <rect x="158" y="88" width="100" height="3" rx="1" fill="#1A1A1E"/>
    <line x1="136" y1="81" x2="152" y2="81" stroke="#7B3FFF" stroke-width="1" stroke-dasharray="2,2"/>
    <polygon points="150,78 154,81 150,84" fill="#7B3FFF"/>
    <rect x="16" y="125" width="120" height="58" rx="8" fill="#0D0D0F" stroke="#C8FF0030" stroke-width="0.8"/>
    <rect x="22" y="135" width="20" height="20" rx="5" fill="#C8FF0010" stroke="#C8FF0025" stroke-width="0.5"/>
    <rect x="46" y="135" width="75" height="5" rx="2" fill="#2A2A32"/>
    <rect x="46" y="144" width="58" height="4" rx="2" fill="#1A1A1E"/>
    <rect x="22" y="158" width="85" height="4" rx="2" fill="#C8FF0018"/>
    <rect x="152" y="125" width="120" height="58" rx="8" fill="#111114" stroke="#1E1E24" stroke-width="0.5"/>
    <rect x="158" y="135" width="20" height="20" rx="5" fill="#C8FF0010" stroke="#C8FF0025" stroke-width="0.5"/>
    <rect x="182" y="135" width="75" height="5" rx="2" fill="#2A2A32"/>
    <rect x="182" y="144" width="58" height="4" rx="2" fill="#1A1A1E"/>
    <line x1="88" y1="110" x2="88" y2="125" stroke="#C8FF00" stroke-width="1"/>
    <polygon points="85,123 88,127 91,123" fill="#C8FF00"/>
    <line x1="136" y1="154" x2="152" y2="154" stroke="#C8FF00" stroke-width="1"/>
    <polygon points="150,151 154,154 150,157" fill="#C8FF00"/>
    <rect x="16" y="198" width="258" height="92" rx="8" fill="#111114" stroke="#1E1E24" stroke-width="0.5"/>
    <rect x="24" y="212" width="240" height="16" rx="4" fill="#C8FF0008" stroke="#C8FF0018" stroke-width="0.5"/>
    <circle cx="32" cy="220" r="4" fill="#C8FF00"/>
    <rect x="42" y="216" width="148" height="4" rx="2" fill="#C8FF0050"/>
    <text x="198" y="222" fill="#C8FF00" font-family="monospace" font-size="9" font-weight="700">AUTO</text>
    <rect x="24" y="234" width="240" height="16" rx="4" fill="#0057FF06" stroke="#0057FF15" stroke-width="0.5"/>
    <circle cx="32" cy="242" r="4" fill="#3380FF"/>
    <rect x="42" y="238" width="130" height="4" rx="2" fill="#0057FF40"/>
    <text x="198" y="244" fill="#3380FF" font-family="monospace" font-size="9" font-weight="700">AUTO</text>
    <rect x="24" y="256" width="240" height="16" rx="4" fill="#7B3FFF06" stroke="#7B3FFF15" stroke-width="0.5"/>
    <circle cx="32" cy="264" r="4" fill="#A87FFF"/>
    <rect x="42" y="260" width="110" height="4" rx="2" fill="#7B3FFF40"/>
    <text x="185" y="266" fill="#A87FFF" font-family="monospace" font-size="9" font-weight="700">LEARNING</text>
  </g>
  <rect x="40" y="36" width="40" height="3" rx="1.5" fill="#A87FFF" opacity="0.9"/>
  <rect x="40" y="46" width="112" height="20" rx="10" fill="#A87FFF12" stroke="#A87FFF35" stroke-width="0.5"/>
  <circle cx="53" cy="56" r="3" fill="#A87FFF"/>
  <text x="62" y="60" fill="#A87FFF" font-family="Arial" font-size="9" font-weight="700" letter-spacing="0.1em">TRENDS · AI</text>
  <text x="40" y="126" fill="#FFFFFF" font-family="Georgia, serif" font-size="30" font-weight="700" letter-spacing="-0.4">Agentic AI in FMCG:</text>
  <text x="40" y="162" fill="#FFFFFF" font-family="Georgia, serif" font-size="30" font-weight="700" letter-spacing="-0.4">The End of Excel</text>
  <text x="40" y="198" fill="#A87FFF" font-family="Georgia, serif" font-size="30" font-weight="700" letter-spacing="-0.4">Distribution</text>
  <text x="40" y="234" fill="#FFFFFF" font-family="Georgia, serif" font-size="30" font-weight="700" letter-spacing="-0.4">and What Comes Next</text>
  <text x="40" y="276" fill="#A0A0B0" font-family="Arial" font-size="13">78% of companies already use AI in ops.</text>
  <text x="40" y="294" fill="#A0A0B0" font-family="Arial" font-size="13">The next wave: autonomous decisions.</text>
  <rect x="40" y="332" width="3" height="20" rx="1.5" fill="#A87FFF"/>
  <text x="50" y="348" fill="#666670" font-family="Arial" font-size="12">Trends · AI · 8 min read</text>
  <text x="638" y="380" fill="#282828" font-family="Georgia, serif" font-size="14" font-weight="700" text-anchor="end">PICSELL+</text>
</g>
</svg>