<svg width="140" height="244" viewBox="0 0 140 244" fill="none" xmlns="http://www.w3.org/2000/svg">
<g filter="url(#filter0_ddddd_122_7225)">
<path d="M58.2141 174.339H24.9512V201.2H29.4559V192.173H58.2141C59.8358 192.173 61.3133 191.773 62.6828 190.936C64.0522 190.099 65.0973 189.007 65.8901 187.624C66.683 186.241 67.0433 184.749 67.0433 183.111C67.0433 180.709 66.1424 178.634 64.4126 176.923C62.6828 175.213 60.6286 174.339 58.2141 174.339ZM61.3133 186.277C60.4484 187.151 59.4394 187.588 58.2141 187.588H29.4559V178.889H58.2141C59.3673 178.889 60.3763 179.289 61.2052 180.126C62.0341 180.963 62.4665 181.946 62.5026 183.111C62.5386 184.348 62.1422 185.404 61.3133 186.277Z" fill="#0973FF"/>
<path d="M89.567 153.339C83.2604 151.992 75.9086 151.046 72.2688 144.931C70.0345 141.182 69.4939 136.524 68.5209 132.302C67.5479 136.524 67.0073 141.146 64.773 144.931C61.1692 151.046 53.7814 151.992 47.4748 153.339C53.7814 154.685 61.1331 155.632 64.773 161.746C67.0073 165.495 67.5479 170.154 68.5209 174.376C69.4939 170.154 70.0345 165.531 72.2688 161.746C75.8726 155.632 83.2604 154.685 89.567 153.339Z" fill="#0973FF"/>
<path d="M107.081 185.513H78.0349C77.1339 185.513 76.3411 185.185 75.7285 184.53C75.0798 183.875 74.7915 183.111 74.7915 182.201C74.7915 181.291 75.1158 180.527 75.7285 179.872C76.3411 179.216 77.1339 178.925 78.0349 178.925H111.118L114.866 174.376H78.0349C75.8726 174.376 74.0347 175.14 72.5211 176.669C71.0075 178.197 70.2507 180.054 70.2507 182.237C70.2507 183.657 70.6111 184.967 71.2958 186.168C71.9805 187.369 72.9535 188.352 74.1428 189.043C75.332 189.735 76.6294 190.099 78.0349 190.099H107.081C107.982 190.099 108.775 190.426 109.388 191.082C110.036 191.737 110.325 192.501 110.325 193.411C110.325 194.321 110 195.085 109.388 195.74C108.775 196.395 107.982 196.687 107.081 196.687H73.9986L70.2507 201.236H107.081C109.244 201.236 111.082 200.472 112.595 198.943C114.109 197.414 114.866 195.558 114.866 193.375C114.866 191.191 114.109 189.371 112.595 187.842C111.082 186.314 109.244 185.549 107.081 185.549V185.513Z" fill="#0973FF"/>
<mask id="mask0_122_7225" style="mask-type:alpha" maskUnits="userSpaceOnUse" x="24" y="104" width="91" height="136">
<path d="M58.2141 174.339H24.9512V201.2H29.4559V192.173H58.2141C59.8358 192.173 61.3133 191.773 62.6828 190.936C64.0522 190.099 65.0973 189.007 65.8901 187.624C66.683 186.241 67.0433 184.749 67.0433 183.111C67.0433 180.709 66.1424 178.634 64.4126 176.923C62.6828 175.213 60.6286 174.339 58.2141 174.339ZM61.3133 186.277C60.4484 187.151 59.4394 187.588 58.2141 187.588H29.4559V178.889H58.2141C59.3673 178.889 60.3763 179.289 61.2052 180.126C62.0341 180.963 62.4665 181.946 62.5026 183.111C62.5386 184.348 62.1422 185.404 61.3133 186.277Z" fill="#9AE1FF"/>
<path d="M89.567 153.339C83.2604 151.992 75.9086 151.046 72.2688 144.931C70.0345 141.182 69.4939 136.524 68.5209 132.302C67.5479 136.524 67.0073 141.146 64.773 144.931C61.1692 151.046 53.7814 151.992 47.4748 153.339C53.7814 154.685 61.1331 155.632 64.773 161.746C67.0073 165.495 67.5479 170.154 68.5209 174.376C69.4939 170.154 70.0345 165.531 72.2688 161.746C75.8726 155.632 83.2604 154.685 89.567 153.339Z" fill="#9AE1FF"/>
<path d="M107.081 185.513H78.0349C77.1339 185.513 76.3411 185.185 75.7285 184.53C75.0798 183.875 74.7915 183.111 74.7915 182.201C74.7915 181.291 75.1158 180.527 75.7285 179.872C76.3411 179.216 77.1339 178.925 78.0349 178.925H111.118L114.866 174.376H78.0349C75.8726 174.376 74.0347 175.14 72.5211 176.669C71.0075 178.197 70.2507 180.054 70.2507 182.237C70.2507 183.657 70.6111 184.967 71.2958 186.168C71.9805 187.369 72.9535 188.352 74.1428 189.043C75.332 189.735 76.6294 190.099 78.0349 190.099H107.081C107.982 190.099 108.775 190.426 109.388 191.082C110.036 191.737 110.325 192.501 110.325 193.411C110.325 194.321 110 195.085 109.388 195.74C108.775 196.395 107.982 196.687 107.081 196.687H73.9986L70.2507 201.236H107.081C109.244 201.236 111.082 200.472 112.595 198.943C114.109 197.414 114.866 195.558 114.866 193.375C114.866 191.191 114.109 189.371 112.595 187.842C111.082 186.314 109.244 185.549 107.081 185.549V185.513Z" fill="#9AE1FF"/>
</mask>
<g mask="url(#mask0_122_7225)">
<g opacity="0.8" filter="url(#filter1_f_122_7225)" style="mix-blend-mode:soft-light">
<rect x="-23.4648" y="105.257" width="32.665" height="138.604" transform="rotate(-42.7081 -23.4648 105.257)" fill="url(#paint0_linear_122_7225)"/>
</g>
<g opacity="0.8" filter="url(#filter2_f_122_7225)" style="mix-blend-mode:soft-light">
<rect x="-39.2568" y="128.386" width="59.957" height="132.319" transform="rotate(-42.7081 -39.2568 128.386)" fill="url(#paint1_linear_122_7225)"/>
</g>
<g opacity="0.8" filter="url(#filter3_f_122_7225)" style="mix-blend-mode:soft-light">
<rect x="-58.6006" y="146.241" width="106.271" height="159.34" transform="rotate(-42.7081 -58.6006 146.241)" fill="url(#paint2_linear_122_7225)"/>
</g>
</g>
</g>
<defs>
<filter id="filter0_ddddd_122_7225" x="-22.9553" y="-4.58471" width="185.729" height="248.856" filterUnits="userSpaceOnUse" color-interpolation-filters="sRGB">
<feFlood flood-opacity="0" result="BackgroundImageFix"/>
<feColorMatrix in="SourceAlpha" type="matrix" values="0 0 0 0 0 0 0 0 0 0 0 0 0 0 0 0 0 0 127 0" result="hardAlpha"/>
<feOffset dy="-3.13027"/>
<feGaussianBlur stdDeviation="3.65198"/>
<feComposite in2="hardAlpha" operator="out"/>
<feColorMatrix type="matrix" values="0 0 0 0 0.00784314 0 0 0 0 0.133333 0 0 0 0 0.25098 0 0 0 0.34 0"/>
<feBlend mode="normal" in2="BackgroundImageFix" result="effect1_dropShadow_122_7225"/>
<feColorMatrix in="SourceAlpha" type="matrix" values="0 0 0 0 0 0 0 0 0 0 0 0 0 0 0 0 0 0 127 0" result="hardAlpha"/>
<feOffset dy="-13.0428"/>
<feGaussianBlur stdDeviation="6.52139"/>
<feComposite in2="hardAlpha" operator="out"/>
<feColorMatrix type="matrix" values="0 0 0 0 0.00784314 0 0 0 0 0.133333 0 0 0 0 0.25098 0 0 0 0.29 0"/>
<feBlend mode="normal" in2="effect1_dropShadow_122_7225" result="effect2_dropShadow_122_7225"/>
<feColorMatrix in="SourceAlpha" type="matrix" values="0 0 0 0 0 0 0 0 0 0 0 0 0 0 0 0 0 0 127 0" result="hardAlpha"/>
<feOffset dy="-29.7376"/>
<feGaussianBlur stdDeviation="8.8691"/>
<feComposite in2="hardAlpha" operator="out"/>
<feColorMatrix type="matrix" values="0 0 0 0 0.00784314 0 0 0 0 0.133333 0 0 0 0 0.25098 0 0 0 0.17 0"/>
<feBlend mode="normal" in2="effect2_dropShadow_122_7225" result="effect3_dropShadow_122_7225"/>
<feColorMatrix in="SourceAlpha" type="matrix" values="0 0 0 0 0 0 0 0 0 0 0 0 0 0 0 0 0 0 127 0" result="hardAlpha"/>
<feOffset dy="-52.6929"/>
<feGaussianBlur stdDeviation="10.4342"/>
<feComposite in2="hardAlpha" operator="out"/>
<feColorMatrix type="matrix" values="0 0 0 0 0.00784314 0 0 0 0 0.133333 0 0 0 0 0.25098 0 0 0 0.05 0"/>
<feBlend mode="normal" in2="effect3_dropShadow_122_7225" result="effect4_dropShadow_122_7225"/>
<feColorMatrix in="SourceAlpha" type="matrix" values="0 0 0 0 0 0 0 0 0 0 0 0 0 0 0 0 0 0 127 0" result="hardAlpha"/>
<feOffset dy="-81.9087"/>
<feGaussianBlur stdDeviation="11.4777"/>
<feComposite in2="hardAlpha" operator="out"/>
<feColorMatrix type="matrix" values="0 0 0 0 0.00784314 0 0 0 0 0.133333 0 0 0 0 0.25098 0 0 0 0.01 0"/>
<feBlend mode="normal" in2="effect4_dropShadow_122_7225" result="effect5_dropShadow_122_7225"/>
<feBlend mode="normal" in="SourceGraphic" in2="effect5_dropShadow_122_7225" result="shape"/>
</filter>
<filter id="filter1_f_122_7225" x="-35.036" y="71.5304" width="141.155" height="147.146" filterUnits="userSpaceOnUse" color-interpolation-filters="sRGB">
<feFlood flood-opacity="0" result="BackgroundImageFix"/>
<feBlend mode="normal" in="SourceGraphic" in2="BackgroundImageFix" result="shape"/>
<feGaussianBlur stdDeviation="5.7856" result="effect1_foregroundBlur_122_7225"/>
</filter>
<filter id="filter2_f_122_7225" x="-50.828" y="76.1475" width="156.947" height="161.04" filterUnits="userSpaceOnUse" color-interpolation-filters="sRGB">
<feFlood flood-opacity="0" result="BackgroundImageFix"/>
<feBlend mode="normal" in="SourceGraphic" in2="BackgroundImageFix" result="shape"/>
<feGaussianBlur stdDeviation="5.7856" result="effect1_foregroundBlur_122_7225"/>
</filter>
<filter id="filter3_f_122_7225" x="-70.1718" y="62.5899" width="209.307" height="212.308" filterUnits="userSpaceOnUse" color-interpolation-filters="sRGB">
<feFlood flood-opacity="0" result="BackgroundImageFix"/>
<feBlend mode="normal" in="SourceGraphic" in2="BackgroundImageFix" result="shape"/>
<feGaussianBlur stdDeviation="5.7856" result="effect1_foregroundBlur_122_7225"/>
</filter>
<linearGradient id="paint0_linear_122_7225" x1="-7.13236" y1="105.257" x2="-7.13236" y2="243.861" gradientUnits="userSpaceOnUse">
<stop stop-color="white" stop-opacity="0"/>
<stop offset="1" stop-color="white"/>
</linearGradient>
<linearGradient id="paint1_linear_122_7225" x1="-9.27834" y1="128.386" x2="-9.27834" y2="260.705" gradientUnits="userSpaceOnUse">
<stop stop-color="white" stop-opacity="0"/>
<stop offset="1" stop-color="white"/>
</linearGradient>
<linearGradient id="paint2_linear_122_7225" x1="-5.46495" y1="146.241" x2="-5.46495" y2="305.581" gradientUnits="userSpaceOnUse">
<stop stop-color="white" stop-opacity="0"/>
<stop offset="1" stop-color="white"/>
</linearGradient>
</defs>
</svg>
